<?xml version="1.0" encoding="UTF-8" standalone="no"?>
<!-- Generator: Adobe Illustrator 20.1.0, SVG Export Plug-In . SVG Version: 6.00 Build 0)  -->

<svg
   xmlns:dc="http://purl.org/dc/elements/1.1/"
   xmlns:cc="http://creativecommons.org/ns#"
   xmlns:rdf="http://www.w3.org/1999/02/22-rdf-syntax-ns#"
   xmlns:svg="http://www.w3.org/2000/svg"
   xmlns="http://www.w3.org/2000/svg"
   xmlns:sodipodi="http://sodipodi.sourceforge.net/DTD/sodipodi-0.dtd"
   xmlns:inkscape="http://www.inkscape.org/namespaces/inkscape"
   version="1.1"
   id="Layer_1"
   x="0px"
   y="0px"
   viewBox="0 0 11.835 11.917"
   style="enable-background:new 0 0 11.835 11.917;"
   xml:space="preserve"
   inkscape:version="0.48.4 r9939"
   width="100%"
   height="100%"
   sodipodi:docname="C:\Users\VETER\AppData\Local\Temp\ink_ext_XXXXXX.svg9SDFSY"><sodipodi:namedview
   pagecolor="#ffffff"
   bordercolor="#666666"
   borderopacity="1"
   objecttolerance="10"
   gridtolerance="10"
   guidetolerance="10"
   inkscape:pageopacity="0"
   inkscape:pageshadow="2"
   inkscape:window-width="1366"
   inkscape:window-height="706"
   id="namedview5"
   showgrid="false"
   inkscape:zoom="28.006579"
   inkscape:cx="7.7848189"
   inkscape:cy="2.9457428"
   inkscape:window-x="-8"
   inkscape:window-y="-8"
   inkscape:window-maximized="1"
   inkscape:current-layer="Layer_1" /><metadata
   id="metadata9"><rdf:RDF><cc:Work
       rdf:about=""><dc:format>image/svg+xml</dc:format><dc:type
         rdf:resource="http://purl.org/dc/dcmitype/StillImage" /><dc:title></dc:title></cc:Work></rdf:RDF></metadata><defs
   id="defs7" />

<path
   id="path2987"
   d="M 10.939369,5.15797 H 2.7832543 L 6.1418839,1.5370146 c 0.3055425,-0.3292548 0.3055425,-0.8630212 0,-1.19227604 -0.3055425,-0.32925485 -0.8004903,-0.32925485 -1.1060328,0 L 0.34125235,5.4049113 c -0.30554254,0.3292548 -0.30554254,0.8630212 0,1.1922761 L 5.0358511,11.658209 c 0.1527713,0.164627 0.3530886,0.246941 0.5534061,0.246941 0.2003174,0 0.4006349,-0.08231 0.5534061,-0.246941 0.3055426,-0.329255 0.3055426,-0.863022 0,-1.192277 L 2.7832543,6.8449771 H 10.93859 c 0.432593,0 0.782564,-0.3776248 0.782564,-0.8435034 0,-0.4658788 -0.349971,-0.8435037 -0.781785,-0.8435037 z"
   style="fill:#fe813e;fill-opacity:1"
   inkscape:connector-curvature="0" /><g
   id="g3790"
   transform="translate(-38.358671,24.834227)"><path
     id="path3-4"
     d="m 7.312,5.958 4.234,-4.263 c 0.385,-0.388 0.385,-1.016 0,-1.404 -0.385,-0.388 -1.009,-0.388 -1.394,0 L 5.917,4.554 1.684,0.291 c -0.385,-0.388 -1.009,-0.388 -1.395,0 -0.385,0.388 -0.385,1.016 0,1.404 l 4.234,4.263 -4.234,4.263 c -0.385,0.388 -0.385,1.017 0,1.404 0.193,0.194 0.445,0.291 0.697,0.291 0.252,0 0.505,-0.097 0.697,-0.291 l 4.234,-4.263 4.234,4.263 c 0.193,0.194 0.445,0.291 0.697,0.291 0.252,0 0.504,-0.097 0.697,-0.291 0.385,-0.388 0.385,-1.016 0,-1.404 L 7.312,5.958 z"
     style="fill:#838697"
     inkscape:connector-curvature="0" /><path
     inkscape:connector-curvature="0"
     style="fill:#fe813e;fill-opacity:1"
     d="m -16.632564,2.4902078 h -10.464 l 4.309,-4.2670001 c 0.392,-0.388 0.392,-1.017 0,-1.405 -0.392,-0.388 -1.027,-0.388 -1.419,0 l -6.023,5.9630001 c -0.392,0.388 -0.392,1.017 0,1.405 l 6.023,5.9640002 c 0.196,0.194 0.453,0.291 0.71,0.291 0.257,0 0.514,-0.097 0.71,-0.291 0.392,-0.3880003 0.392,-1.0170003 0,-1.4050003 l -4.31,-4.2669999 h 10.463 c 0.555,0 1.004,-0.445 1.004,-0.994 0,-0.549 -0.449,-0.994 -1.003,-0.994 z"
     id="path2987-8" /></g><path
   id="path3795"
   d="m -36.5459,4.0674681 h -10.464 l 4.309,-4.26700009 c 0.392,-0.388 0.392,-1.01700001 0,-1.40500001 -0.392,-0.388 -1.027,-0.388 -1.419,0 l -6.023,5.9630001 c -0.392,0.388 -0.392,1.017 0,1.405 l 6.023,5.9639999 c 0.196,0.194 0.453,0.291 0.71,0.291 0.257,0 0.514,-0.097 0.71,-0.291 0.392,-0.388 0.392,-1.017 0,-1.405 l -4.31,-4.2669999 h 10.463 c 0.555,0 1.004,-0.445 1.004,-0.994 0,-0.549 -0.449,-0.994 -1.003,-0.994 z"
   style="fill:#838697"
   inkscape:connector-curvature="0" /></svg>